  0
SECTION
  2
BLOCKS
  0
ENDSEC
  0
SECTION
  2
ENTITIES
  0
LINE
  8
0
 10
124.309
 20
-112.451
 11
124.5
 21
-112.366
  0
LINE
  8
0
 10
124.5
 20
-112.366
 11
124.669
 21
-112.243
  0
LINE
  8
0
 10
124.669
 20
-112.243
 11
124.809
 21
-112.088
  0
LINE
  8
0
 10
124.809
 20
-112.088
 11
124.914
 21
-111.907
  0
LINE
  8
0
 10
124.914
 20
-111.907
 11
124.978
 21
-111.708
  0
LINE
  8
0
 10
124.978
 20
-111.708
 11
125
 21
-111.5
  0
LINE
  8
0
 10
125
 20
-111.5
 11
125
 21
111.5
  0
LINE
  8
0
 10
125
 20
111.5
 11
124.978
 21
111.708
  0
LINE
  8
0
 10
124.978
 20
111.708
 11
124.914
 21
111.907
  0
LINE
  8
0
 10
124.914
 20
111.907
 11
124.809
 21
112.088
  0
LINE
  8
0
 10
124.809
 20
112.088
 11
124.669
 21
112.243
  0
LINE
  8
0
 10
124.669
 20
112.243
 11
124.5
 21
112.366
  0
LINE
  8
0
 10
124.5
 20
112.366
 11
124.309
 21
112.451
  0
LINE
  8
0
 10
124.309
 20
112.451
 11
124.105
 21
112.495
  0
LINE
  8
0
 10
124.105
 20
112.495
 11
-124.105
 21
112.495
  0
LINE
  8
0
 10
-124.105
 20
112.495
 11
-124.309
 21
112.451
  0
LINE
  8
0
 10
-124.309
 20
112.451
 11
-124.5
 21
112.366
  0
LINE
  8
0
 10
-124.5
 20
112.366
 11
-124.669
 21
112.243
  0
LINE
  8
0
 10
-124.669
 20
112.243
 11
-124.809
 21
112.088
  0
LINE
  8
0
 10
-124.809
 20
112.088
 11
-124.914
 21
111.907
  0
LINE
  8
0
 10
-124.914
 20
111.907
 11
-124.978
 21
111.708
  0
LINE
  8
0
 10
-124.978
 20
111.708
 11
-125
 21
111.5
  0
LINE
  8
0
 10
-125
 20
111.5
 11
-125
 21
-111.5
  0
LINE
  8
0
 10
-125
 20
-111.5
 11
-124.978
 21
-111.708
  0
LINE
  8
0
 10
-124.978
 20
-111.708
 11
-124.914
 21
-111.907
  0
LINE
  8
0
 10
-124.914
 20
-111.907
 11
-124.809
 21
-112.088
  0
LINE
  8
0
 10
-124.809
 20
-112.088
 11
-124.669
 21
-112.243
  0
LINE
  8
0
 10
-124.669
 20
-112.243
 11
-124.5
 21
-112.366
  0
LINE
  8
0
 10
-124.5
 20
-112.366
 11
-124.309
 21
-112.451
  0
LINE
  8
0
 10
-124.309
 20
-112.451
 11
-124.105
 21
-112.495
  0
LINE
  8
0
 10
-124.105
 20
-112.495
 11
124.105
 21
-112.495
  0
LINE
  8
0
 10
124.105
 20
-112.495
 11
124.309
 21
-112.451
  0
LINE
  8
0
 10
-102.635
 20
87.8542
 11
-102.903
 21
87.8881
  0
LINE
  8
0
 10
-102.903
 20
87.8881
 11
-103.164
 21
87.9552
  0
LINE
  8
0
 10
-103.164
 20
87.9552
 11
-103.415
 21
88.0546
  0
LINE
  8
0
 10
-103.415
 20
88.0546
 11
-103.652
 21
88.1847
  0
LINE
  8
0
 10
-103.652
 20
88.1847
 11
-103.87
 21
88.3434
  0
LINE
  8
0
 10
-103.87
 20
88.3434
 11
-104.067
 21
88.5282
  0
LINE
  8
0
 10
-104.067
 20
88.5282
 11
-104.239
 21
88.7363
  0
LINE
  8
0
 10
-104.239
 20
88.7363
 11
-104.384
 21
88.9642
  0
LINE
  8
0
 10
-104.384
 20
88.9642
 11
-104.499
 21
89.2085
  0
LINE
  8
0
 10
-104.499
 20
89.2085
 11
-104.582
 21
89.4653
  0
LINE
  8
0
 10
-104.582
 20
89.4653
 11
-104.633
 21
89.7305
  0
LINE
  8
0
 10
-104.633
 20
89.7305
 11
-104.65
 21
90
  0
LINE
  8
0
 10
-104.65
 20
90
 11
-104.633
 21
90.2695
  0
LINE
  8
0
 10
-104.633
 20
90.2695
 11
-104.582
 21
90.5347
  0
LINE
  8
0
 10
-104.582
 20
90.5347
 11
-104.499
 21
90.7915
  0
LINE
  8
0
 10
-104.499
 20
90.7915
 11
-104.384
 21
91.0358
  0
LINE
  8
0
 10
-104.384
 20
91.0358
 11
-104.239
 21
91.2637
  0
LINE
  8
0
 10
-104.239
 20
91.2637
 11
-104.067
 21
91.4718
  0
LINE
  8
0
 10
-104.067
 20
91.4718
 11
-103.87
 21
91.6566
  0
LINE
  8
0
 10
-103.87
 20
91.6566
 11
-103.652
 21
91.8153
  0
LINE
  8
0
 10
-103.652
 20
91.8153
 11
-103.415
 21
91.9454
  0
LINE
  8
0
 10
-103.415
 20
91.9454
 11
-103.164
 21
92.0448
  0
LINE
  8
0
 10
-103.164
 20
92.0448
 11
-102.903
 21
92.1119
  0
LINE
  8
0
 10
-102.903
 20
92.1119
 11
-102.635
 21
92.1458
  0
LINE
  8
0
 10
-102.635
 20
92.1458
 11
-102.365
 21
92.1458
  0
LINE
  8
0
 10
-102.365
 20
92.1458
 11
-102.097
 21
92.1119
  0
LINE
  8
0
 10
-102.097
 20
92.1119
 11
-101.836
 21
92.0448
  0
LINE
  8
0
 10
-101.836
 20
92.0448
 11
-101.585
 21
91.9454
  0
LINE
  8
0
 10
-101.585
 20
91.9454
 11
-101.348
 21
91.8153
  0
LINE
  8
0
 10
-101.348
 20
91.8153
 11
-101.13
 21
91.6566
  0
LINE
  8
0
 10
-101.13
 20
91.6566
 11
-100.933
 21
91.4718
  0
LINE
  8
0
 10
-100.933
 20
91.4718
 11
-100.761
 21
91.2637
  0
LINE
  8
0
 10
-100.761
 20
91.2637
 11
-100.616
 21
91.0358
  0
LINE
  8
0
 10
-100.616
 20
91.0358
 11
-100.501
 21
90.7915
  0
LINE
  8
0
 10
-100.501
 20
90.7915
 11
-100.418
 21
90.5347
  0
LINE
  8
0
 10
-100.418
 20
90.5347
 11
-100.367
 21
90.2695
  0
LINE
  8
0
 10
-100.367
 20
90.2695
 11
-100.35
 21
90
  0
LINE
  8
0
 10
-100.35
 20
90
 11
-100.367
 21
89.7305
  0
LINE
  8
0
 10
-100.367
 20
89.7305
 11
-100.418
 21
89.4653
  0
LINE
  8
0
 10
-100.418
 20
89.4653
 11
-100.501
 21
89.2085
  0
LINE
  8
0
 10
-100.501
 20
89.2085
 11
-100.616
 21
88.9642
  0
LINE
  8
0
 10
-100.616
 20
88.9642
 11
-100.761
 21
88.7363
  0
LINE
  8
0
 10
-100.761
 20
88.7363
 11
-100.933
 21
88.5282
  0
LINE
  8
0
 10
-100.933
 20
88.5282
 11
-101.13
 21
88.3434
  0
LINE
  8
0
 10
-101.13
 20
88.3434
 11
-101.348
 21
88.1847
  0
LINE
  8
0
 10
-101.348
 20
88.1847
 11
-101.585
 21
88.0546
  0
LINE
  8
0
 10
-101.585
 20
88.0546
 11
-101.836
 21
87.9552
  0
LINE
  8
0
 10
-101.836
 20
87.9552
 11
-102.097
 21
87.8881
  0
LINE
  8
0
 10
-102.097
 20
87.8881
 11
-102.365
 21
87.8542
  0
LINE
  8
0
 10
-102.365
 20
87.8542
 11
-102.635
 21
87.8542
  0
LINE
  8
0
 10
102.365
 20
87.8542
 11
102.097
 21
87.8881
  0
LINE
  8
0
 10
102.097
 20
87.8881
 11
101.836
 21
87.9552
  0
LINE
  8
0
 10
101.836
 20
87.9552
 11
101.585
 21
88.0546
  0
LINE
  8
0
 10
101.585
 20
88.0546
 11
101.348
 21
88.1847
  0
LINE
  8
0
 10
101.348
 20
88.1847
 11
101.13
 21
88.3434
  0
LINE
  8
0
 10
101.13
 20
88.3434
 11
100.933
 21
88.5282
  0
LINE
  8
0
 10
100.933
 20
88.5282
 11
100.761
 21
88.7363
  0
LINE
  8
0
 10
100.761
 20
88.7363
 11
100.616
 21
88.9642
  0
LINE
  8
0
 10
100.616
 20
88.9642
 11
100.501
 21
89.2085
  0
LINE
  8
0
 10
100.501
 20
89.2085
 11
100.418
 21
89.4653
  0
LINE
  8
0
 10
100.418
 20
89.4653
 11
100.367
 21
89.7305
  0
LINE
  8
0
 10
100.367
 20
89.7305
 11
100.35
 21
90
  0
LINE
  8
0
 10
100.35
 20
90
 11
100.367
 21
90.2695
  0
LINE
  8
0
 10
100.367
 20
90.2695
 11
100.418
 21
90.5347
  0
LINE
  8
0
 10
100.418
 20
90.5347
 11
100.501
 21
90.7915
  0
LINE
  8
0
 10
100.501
 20
90.7915
 11
100.616
 21
91.0358
  0
LINE
  8
0
 10
100.616
 20
91.0358
 11
100.761
 21
91.2637
  0
LINE
  8
0
 10
100.761
 20
91.2637
 11
100.933
 21
91.4718
  0
LINE
  8
0
 10
100.933
 20
91.4718
 11
101.13
 21
91.6566
  0
LINE
  8
0
 10
101.13
 20
91.6566
 11
101.348
 21
91.8153
  0
LINE
  8
0
 10
101.348
 20
91.8153
 11
101.585
 21
91.9454
  0
LINE
  8
0
 10
101.585
 20
91.9454
 11
101.836
 21
92.0448
  0
LINE
  8
0
 10
101.836
 20
92.0448
 11
102.097
 21
92.1119
  0
LINE
  8
0
 10
102.097
 20
92.1119
 11
102.365
 21
92.1458
  0
LINE
  8
0
 10
102.365
 20
92.1458
 11
102.635
 21
92.1458
  0
LINE
  8
0
 10
102.635
 20
92.1458
 11
102.903
 21
92.1119
  0
LINE
  8
0
 10
102.903
 20
92.1119
 11
103.164
 21
92.0448
  0
LINE
  8
0
 10
103.164
 20
92.0448
 11
103.415
 21
91.9454
  0
LINE
  8
0
 10
103.415
 20
91.9454
 11
103.652
 21
91.8153
  0
LINE
  8
0
 10
103.652
 20
91.8153
 11
103.87
 21
91.6566
  0
LINE
  8
0
 10
103.87
 20
91.6566
 11
104.067
 21
91.4718
  0
LINE
  8
0
 10
104.067
 20
91.4718
 11
104.239
 21
91.2637
  0
LINE
  8
0
 10
104.239
 20
91.2637
 11
104.384
 21
91.0358
  0
LINE
  8
0
 10
104.384
 20
91.0358
 11
104.499
 21
90.7915
  0
LINE
  8
0
 10
104.499
 20
90.7915
 11
104.582
 21
90.5347
  0
LINE
  8
0
 10
104.582
 20
90.5347
 11
104.633
 21
90.2695
  0
LINE
  8
0
 10
104.633
 20
90.2695
 11
104.65
 21
90
  0
LINE
  8
0
 10
104.65
 20
90
 11
104.633
 21
89.7305
  0
LINE
  8
0
 10
104.633
 20
89.7305
 11
104.582
 21
89.4653
  0
LINE
  8
0
 10
104.582
 20
89.4653
 11
104.499
 21
89.2085
  0
LINE
  8
0
 10
104.499
 20
89.2085
 11
104.384
 21
88.9642
  0
LINE
  8
0
 10
104.384
 20
88.9642
 11
104.239
 21
88.7363
  0
LINE
  8
0
 10
104.239
 20
88.7363
 11
104.067
 21
88.5282
  0
LINE
  8
0
 10
104.067
 20
88.5282
 11
103.87
 21
88.3434
  0
LINE
  8
0
 10
103.87
 20
88.3434
 11
103.652
 21
88.1847
  0
LINE
  8
0
 10
103.652
 20
88.1847
 11
103.415
 21
88.0546
  0
LINE
  8
0
 10
103.415
 20
88.0546
 11
103.164
 21
87.9552
  0
LINE
  8
0
 10
103.164
 20
87.9552
 11
102.903
 21
87.8881
  0
LINE
  8
0
 10
102.903
 20
87.8881
 11
102.635
 21
87.8542
  0
LINE
  8
0
 10
102.635
 20
87.8542
 11
102.365
 21
87.8542
  0
LINE
  8
0
 10
85.5654
 20
84.2163
 11
85.3047
 21
84.3418
  0
LINE
  8
0
 10
85.3047
 20
84.3418
 11
85.1244
 21
84.568
  0
LINE
  8
0
 10
85.1244
 20
84.568
 11
85.06
 21
84.85
  0
LINE
  8
0
 10
85.06
 20
84.85
 11
85.1244
 21
85.132
  0
LINE
  8
0
 10
85.1244
 20
85.132
 11
85.3047
 21
85.3582
  0
LINE
  8
0
 10
85.3047
 20
85.3582
 11
85.5654
 21
85.4837
  0
LINE
  8
0
 10
85.5654
 20
85.4837
 11
85.8546
 21
85.4837
  0
LINE
  8
0
 10
85.8546
 20
85.4837
 11
86.1153
 21
85.3582
  0
LINE
  8
0
 10
86.1153
 20
85.3582
 11
86.2956
 21
85.132
  0
LINE
  8
0
 10
86.2956
 20
85.132
 11
86.36
 21
84.85
  0
LINE
  8
0
 10
86.36
 20
84.85
 11
86.2956
 21
84.568
  0
LINE
  8
0
 10
86.2956
 20
84.568
 11
86.1153
 21
84.3418
  0
LINE
  8
0
 10
86.1153
 20
84.3418
 11
85.8546
 21
84.2163
  0
LINE
  8
0
 10
85.8546
 20
84.2163
 11
85.5654
 21
84.2163
  0
LINE
  8
0
 10
54.1454
 20
84.2163
 11
53.8847
 21
84.3418
  0
LINE
  8
0
 10
53.8847
 20
84.3418
 11
53.7044
 21
84.568
  0
LINE
  8
0
 10
53.7044
 20
84.568
 11
53.64
 21
84.85
  0
LINE
  8
0
 10
53.64
 20
84.85
 11
53.7044
 21
85.132
  0
LINE
  8
0
 10
53.7044
 20
85.132
 11
53.8847
 21
85.3582
  0
LINE
  8
0
 10
53.8847
 20
85.3582
 11
54.1454
 21
85.4837
  0
LINE
  8
0
 10
54.1454
 20
85.4837
 11
54.4346
 21
85.4837
  0
LINE
  8
0
 10
54.4346
 20
85.4837
 11
54.6953
 21
85.3582
  0
LINE
  8
0
 10
54.6953
 20
85.3582
 11
54.8756
 21
85.132
  0
LINE
  8
0
 10
54.8756
 20
85.132
 11
54.94
 21
84.85
  0
LINE
  8
0
 10
54.94
 20
84.85
 11
54.8756
 21
84.568
  0
LINE
  8
0
 10
54.8756
 20
84.568
 11
54.6953
 21
84.3418
  0
LINE
  8
0
 10
54.6953
 20
84.3418
 11
54.4346
 21
84.2163
  0
LINE
  8
0
 10
54.4346
 20
84.2163
 11
54.1454
 21
84.2163
  0
LINE
  8
0
 10
54.25
 20
61.65
 11
54.25
 21
78.35
  0
LINE
  8
0
 10
54.25
 20
78.35
 11
85.75
 21
78.35
  0
LINE
  8
0
 10
85.75
 20
78.35
 11
85.75
 21
61.65
  0
LINE
  8
0
 10
85.75
 20
61.65
 11
54.25
 21
61.65
  0
LINE
  8
0
 10
85.5654
 20
54.5163
 11
85.3047
 21
54.6418
  0
LINE
  8
0
 10
85.3047
 20
54.6418
 11
85.1244
 21
54.868
  0
LINE
  8
0
 10
85.1244
 20
54.868
 11
85.06
 21
55.15
  0
LINE
  8
0
 10
85.06
 20
55.15
 11
85.1244
 21
55.432
  0
LINE
  8
0
 10
85.1244
 20
55.432
 11
85.3047
 21
55.6582
  0
LINE
  8
0
 10
85.3047
 20
55.6582
 11
85.5654
 21
55.7837
  0
LINE
  8
0
 10
85.5654
 20
55.7837
 11
85.8546
 21
55.7837
  0
LINE
  8
0
 10
85.8546
 20
55.7837
 11
86.1153
 21
55.6582
  0
LINE
  8
0
 10
86.1153
 20
55.6582
 11
86.2956
 21
55.432
  0
LINE
  8
0
 10
86.2956
 20
55.432
 11
86.36
 21
55.15
  0
LINE
  8
0
 10
86.36
 20
55.15
 11
86.2956
 21
54.868
  0
LINE
  8
0
 10
86.2956
 20
54.868
 11
86.1153
 21
54.6418
  0
LINE
  8
0
 10
86.1153
 20
54.6418
 11
85.8546
 21
54.5163
  0
LINE
  8
0
 10
85.8546
 20
54.5163
 11
85.5654
 21
54.5163
  0
LINE
  8
0
 10
54.1454
 20
54.5163
 11
53.8847
 21
54.6418
  0
LINE
  8
0
 10
53.8847
 20
54.6418
 11
53.7044
 21
54.868
  0
LINE
  8
0
 10
53.7044
 20
54.868
 11
53.64
 21
55.15
  0
LINE
  8
0
 10
53.64
 20
55.15
 11
53.7044
 21
55.432
  0
LINE
  8
0
 10
53.7044
 20
55.432
 11
53.8847
 21
55.6582
  0
LINE
  8
0
 10
53.8847
 20
55.6582
 11
54.1454
 21
55.7837
  0
LINE
  8
0
 10
54.1454
 20
55.7837
 11
54.4346
 21
55.7837
  0
LINE
  8
0
 10
54.4346
 20
55.7837
 11
54.6953
 21
55.6582
  0
LINE
  8
0
 10
54.6953
 20
55.6582
 11
54.8756
 21
55.432
  0
LINE
  8
0
 10
54.8756
 20
55.432
 11
54.94
 21
55.15
  0
LINE
  8
0
 10
54.94
 20
55.15
 11
54.8756
 21
54.868
  0
LINE
  8
0
 10
54.8756
 20
54.868
 11
54.6953
 21
54.6418
  0
LINE
  8
0
 10
54.6953
 20
54.6418
 11
54.4346
 21
54.5163
  0
LINE
  8
0
 10
54.4346
 20
54.5163
 11
54.1454
 21
54.5163
  0
LINE
  8
0
 10
-6.075
 20
23.925
 11
-6.075
 21
36.075
  0
LINE
  8
0
 10
-6.075
 20
36.075
 11
6.075
 21
36.075
  0
LINE
  8
0
 10
6.075
 20
36.075
 11
6.075
 21
23.925
  0
LINE
  8
0
 10
6.075
 20
23.925
 11
-6.075
 21
23.925
  0
LINE
  8
0
 10
23.425
 20
23.925
 11
23.425
 21
36.075
  0
LINE
  8
0
 10
23.425
 20
36.075
 11
35.575
 21
36.075
  0
LINE
  8
0
 10
35.575
 20
36.075
 11
35.575
 21
23.925
  0
LINE
  8
0
 10
35.575
 20
23.925
 11
23.425
 21
23.925
  0
LINE
  8
0
 10
49.725
 20
11.025
 11
49.725
 21
23.175
  0
LINE
  8
0
 10
49.725
 20
23.175
 11
61.875
 21
23.175
  0
LINE
  8
0
 10
61.875
 20
23.175
 11
61.875
 21
11.025
  0
LINE
  8
0
 10
61.875
 20
11.025
 11
49.725
 21
11.025
  0
LINE
  8
0
 10
65.225
 20
-41.275
 11
65.225
 21
-29.125
  0
LINE
  8
0
 10
65.225
 20
-29.125
 11
77.375
 21
-29.125
  0
LINE
  8
0
 10
77.375
 20
-29.125
 11
77.375
 21
-41.275
  0
LINE
  8
0
 10
77.375
 20
-41.275
 11
65.225
 21
-41.275
  0
LINE
  8
0
 10
102.365
 20
-92.1458
 11
102.097
 21
-92.1119
  0
LINE
  8
0
 10
102.097
 20
-92.1119
 11
101.836
 21
-92.0448
  0
LINE
  8
0
 10
101.836
 20
-92.0448
 11
101.585
 21
-91.9454
  0
LINE
  8
0
 10
101.585
 20
-91.9454
 11
101.348
 21
-91.8153
  0
LINE
  8
0
 10
101.348
 20
-91.8153
 11
101.13
 21
-91.6566
  0
LINE
  8
0
 10
101.13
 20
-91.6566
 11
100.933
 21
-91.4718
  0
LINE
  8
0
 10
100.933
 20
-91.4718
 11
100.761
 21
-91.2637
  0
LINE
  8
0
 10
100.761
 20
-91.2637
 11
100.616
 21
-91.0358
  0
LINE
  8
0
 10
100.616
 20
-91.0358
 11
100.501
 21
-90.7915
  0
LINE
  8
0
 10
100.501
 20
-90.7915
 11
100.418
 21
-90.5347
  0
LINE
  8
0
 10
100.418
 20
-90.5347
 11
100.367
 21
-90.2695
  0
LINE
  8
0
 10
100.367
 20
-90.2695
 11
100.35
 21
-90
  0
LINE
  8
0
 10
100.35
 20
-90
 11
100.367
 21
-89.7305
  0
LINE
  8
0
 10
100.367
 20
-89.7305
 11
100.418
 21
-89.4653
  0
LINE
  8
0
 10
100.418
 20
-89.4653
 11
100.501
 21
-89.2085
  0
LINE
  8
0
 10
100.501
 20
-89.2085
 11
100.616
 21
-88.9642
  0
LINE
  8
0
 10
100.616
 20
-88.9642
 11
100.761
 21
-88.7363
  0
LINE
  8
0
 10
100.761
 20
-88.7363
 11
100.933
 21
-88.5282
  0
LINE
  8
0
 10
100.933
 20
-88.5282
 11
101.13
 21
-88.3434
  0
LINE
  8
0
 10
101.13
 20
-88.3434
 11
101.348
 21
-88.1847
  0
LINE
  8
0
 10
101.348
 20
-88.1847
 11
101.585
 21
-88.0546
  0
LINE
  8
0
 10
101.585
 20
-88.0546
 11
101.836
 21
-87.9552
  0
LINE
  8
0
 10
101.836
 20
-87.9552
 11
102.097
 21
-87.8881
  0
LINE
  8
0
 10
102.097
 20
-87.8881
 11
102.365
 21
-87.8542
  0
LINE
  8
0
 10
102.365
 20
-87.8542
 11
102.635
 21
-87.8542
  0
LINE
  8
0
 10
102.635
 20
-87.8542
 11
102.903
 21
-87.8881
  0
LINE
  8
0
 10
102.903
 20
-87.8881
 11
103.164
 21
-87.9552
  0
LINE
  8
0
 10
103.164
 20
-87.9552
 11
103.415
 21
-88.0546
  0
LINE
  8
0
 10
103.415
 20
-88.0546
 11
103.652
 21
-88.1847
  0
LINE
  8
0
 10
103.652
 20
-88.1847
 11
103.87
 21
-88.3434
  0
LINE
  8
0
 10
103.87
 20
-88.3434
 11
104.067
 21
-88.5282
  0
LINE
  8
0
 10
104.067
 20
-88.5282
 11
104.239
 21
-88.7363
  0
LINE
  8
0
 10
104.239
 20
-88.7363
 11
104.384
 21
-88.9642
  0
LINE
  8
0
 10
104.384
 20
-88.9642
 11
104.499
 21
-89.2085
  0
LINE
  8
0
 10
104.499
 20
-89.2085
 11
104.582
 21
-89.4653
  0
LINE
  8
0
 10
104.582
 20
-89.4653
 11
104.633
 21
-89.7305
  0
LINE
  8
0
 10
104.633
 20
-89.7305
 11
104.65
 21
-90
  0
LINE
  8
0
 10
104.65
 20
-90
 11
104.633
 21
-90.2695
  0
LINE
  8
0
 10
104.633
 20
-90.2695
 11
104.582
 21
-90.5347
  0
LINE
  8
0
 10
104.582
 20
-90.5347
 11
104.499
 21
-90.7915
  0
LINE
  8
0
 10
104.499
 20
-90.7915
 11
104.384
 21
-91.0358
  0
LINE
  8
0
 10
104.384
 20
-91.0358
 11
104.239
 21
-91.2637
  0
LINE
  8
0
 10
104.239
 20
-91.2637
 11
104.067
 21
-91.4718
  0
LINE
  8
0
 10
104.067
 20
-91.4718
 11
103.87
 21
-91.6566
  0
LINE
  8
0
 10
103.87
 20
-91.6566
 11
103.652
 21
-91.8153
  0
LINE
  8
0
 10
103.652
 20
-91.8153
 11
103.415
 21
-91.9454
  0
LINE
  8
0
 10
103.415
 20
-91.9454
 11
103.164
 21
-92.0448
  0
LINE
  8
0
 10
103.164
 20
-92.0448
 11
102.903
 21
-92.1119
  0
LINE
  8
0
 10
102.903
 20
-92.1119
 11
102.635
 21
-92.1458
  0
LINE
  8
0
 10
102.635
 20
-92.1458
 11
102.365
 21
-92.1458
  0
LINE
  8
0
 10
-102.635
 20
-92.1458
 11
-102.903
 21
-92.1119
  0
LINE
  8
0
 10
-102.903
 20
-92.1119
 11
-103.164
 21
-92.0448
  0
LINE
  8
0
 10
-103.164
 20
-92.0448
 11
-103.415
 21
-91.9454
  0
LINE
  8
0
 10
-103.415
 20
-91.9454
 11
-103.652
 21
-91.8153
  0
LINE
  8
0
 10
-103.652
 20
-91.8153
 11
-103.87
 21
-91.6566
  0
LINE
  8
0
 10
-103.87
 20
-91.6566
 11
-104.067
 21
-91.4718
  0
LINE
  8
0
 10
-104.067
 20
-91.4718
 11
-104.239
 21
-91.2637
  0
LINE
  8
0
 10
-104.239
 20
-91.2637
 11
-104.384
 21
-91.0358
  0
LINE
  8
0
 10
-104.384
 20
-91.0358
 11
-104.499
 21
-90.7915
  0
LINE
  8
0
 10
-104.499
 20
-90.7915
 11
-104.582
 21
-90.5347
  0
LINE
  8
0
 10
-104.582
 20
-90.5347
 11
-104.633
 21
-90.2695
  0
LINE
  8
0
 10
-104.633
 20
-90.2695
 11
-104.65
 21
-90
  0
LINE
  8
0
 10
-104.65
 20
-90
 11
-104.633
 21
-89.7305
  0
LINE
  8
0
 10
-104.633
 20
-89.7305
 11
-104.582
 21
-89.4653
  0
LINE
  8
0
 10
-104.582
 20
-89.4653
 11
-104.499
 21
-89.2085
  0
LINE
  8
0
 10
-104.499
 20
-89.2085
 11
-104.384
 21
-88.9642
  0
LINE
  8
0
 10
-104.384
 20
-88.9642
 11
-104.239
 21
-88.7363
  0
LINE
  8
0
 10
-104.239
 20
-88.7363
 11
-104.067
 21
-88.5282
  0
LINE
  8
0
 10
-104.067
 20
-88.5282
 11
-103.87
 21
-88.3434
  0
LINE
  8
0
 10
-103.87
 20
-88.3434
 11
-103.652
 21
-88.1847
  0
LINE
  8
0
 10
-103.652
 20
-88.1847
 11
-103.415
 21
-88.0546
  0
LINE
  8
0
 10
-103.415
 20
-88.0546
 11
-103.164
 21
-87.9552
  0
LINE
  8
0
 10
-103.164
 20
-87.9552
 11
-102.903
 21
-87.8881
  0
LINE
  8
0
 10
-102.903
 20
-87.8881
 11
-102.635
 21
-87.8542
  0
LINE
  8
0
 10
-102.635
 20
-87.8542
 11
-102.365
 21
-87.8542
  0
LINE
  8
0
 10
-102.365
 20
-87.8542
 11
-102.097
 21
-87.8881
  0
LINE
  8
0
 10
-102.097
 20
-87.8881
 11
-101.836
 21
-87.9552
  0
LINE
  8
0
 10
-101.836
 20
-87.9552
 11
-101.585
 21
-88.0546
  0
LINE
  8
0
 10
-101.585
 20
-88.0546
 11
-101.348
 21
-88.1847
  0
LINE
  8
0
 10
-101.348
 20
-88.1847
 11
-101.13
 21
-88.3434
  0
LINE
  8
0
 10
-101.13
 20
-88.3434
 11
-100.933
 21
-88.5282
  0
LINE
  8
0
 10
-100.933
 20
-88.5282
 11
-100.761
 21
-88.7363
  0
LINE
  8
0
 10
-100.761
 20
-88.7363
 11
-100.616
 21
-88.9642
  0
LINE
  8
0
 10
-100.616
 20
-88.9642
 11
-100.501
 21
-89.2085
  0
LINE
  8
0
 10
-100.501
 20
-89.2085
 11
-100.418
 21
-89.4653
  0
LINE
  8
0
 10
-100.418
 20
-89.4653
 11
-100.367
 21
-89.7305
  0
LINE
  8
0
 10
-100.367
 20
-89.7305
 11
-100.35
 21
-90
  0
LINE
  8
0
 10
-100.35
 20
-90
 11
-100.367
 21
-90.2695
  0
LINE
  8
0
 10
-100.367
 20
-90.2695
 11
-100.418
 21
-90.5347
  0
LINE
  8
0
 10
-100.418
 20
-90.5347
 11
-100.501
 21
-90.7915
  0
LINE
  8
0
 10
-100.501
 20
-90.7915
 11
-100.616
 21
-91.0358
  0
LINE
  8
0
 10
-100.616
 20
-91.0358
 11
-100.761
 21
-91.2637
  0
LINE
  8
0
 10
-100.761
 20
-91.2637
 11
-100.933
 21
-91.4718
  0
LINE
  8
0
 10
-100.933
 20
-91.4718
 11
-101.13
 21
-91.6566
  0
LINE
  8
0
 10
-101.13
 20
-91.6566
 11
-101.348
 21
-91.8153
  0
LINE
  8
0
 10
-101.348
 20
-91.8153
 11
-101.585
 21
-91.9454
  0
LINE
  8
0
 10
-101.585
 20
-91.9454
 11
-101.836
 21
-92.0448
  0
LINE
  8
0
 10
-101.836
 20
-92.0448
 11
-102.097
 21
-92.1119
  0
LINE
  8
0
 10
-102.097
 20
-92.1119
 11
-102.365
 21
-92.1458
  0
LINE
  8
0
 10
-102.365
 20
-92.1458
 11
-102.635
 21
-92.1458
  0
ENDSEC
  0
SECTION
  2
OBJECTS
  0
DICTIONARY
  0
ENDSEC
  0
EOF
